nColumns=19
nRows=78
DataType=double
version=3
OpenSimVersion=4.1
endheader
time	ground_force_1_vx	ground_force_1_vy	ground_force_1_vz	ground_force_1_px	ground_force_1_py	ground_force_1_pz	ground_force_1_mx	ground_force_1_my	ground_force_1_mz	ground_force_2_vx	ground_force_2_vy	ground_force_2_vz	ground_force_2_px	ground_force_2_py	ground_force_2_pz	ground_force_2_mx	ground_force_2_my	ground_force_2_mz
0.15	-6.79412	21.4396	-6.63972	1.24549	0	-0.214101	0	-3.53113	0	0	0	0	-0.000565158	0	0.000507084	0	0	0
0.158333	-24.8968	58.1066	-12.5368	1.26087	0	-0.250197	0	-2.61734	0	0	0	0	-0.000565158	0	0.000507084	0	0	0
0.166667	-58.23	133.733	-21.849	1.27174	0	-0.26494	0	-1.25752	0	0	0	0	-0.000565158	0	0.000507084	0	0	0
0.175	-96.6728	243.828	-32.495	1.27589	0	-0.270597	-0	0.314319	-0	0	0	0	-0.000565158	0	0.000507084	0	0	0
0.183333	-112.923	364.581	-41.7588	1.26441	0	-0.274068	-0	1.74222	-0	0	0	0	-0.000565158	0	0.000507084	0	0	0
0.191667	-99.6455	490.891	-47.8236	1.23414	0	-0.278499	-0	2.64816	-0	0	0	0	-0.000565158	0	0.000507083	0	0	0
0.2	-87.6384	637.116	-48.9271	1.19996	0	-0.283672	-0	2.75391	-0	0	0	0	-0.000565158	0	0.000507083	0	0	0
0.208333	-102.425	806.284	-42.8862	1.17579	0	-0.287956	-0	1.98826	-0	0	0	0	-0.000565159	0	0.000507083	0	0	0
0.216667	-136.537	983.479	-29.3186	1.15848	0	-0.291359	-0	0.540327	-0	0	0	0	-0.000565159	0	0.000507083	0	0	0
0.225	-162.812	1151.35	-11.5779	1.13906	0	-0.294575	0	-1.17456	0	0	0	0	-0.000565159	0	0.000507083	0	0	0
0.233333	-163.659	1301.94	4.65626	1.11487	0	-0.297459	0	-2.64014	0	0	0	0	-0.00056516	0	0.000507083	0	0	0
0.241667	-145.935	1432.66	14.6398	1.0897	0	-0.299435	0	-3.41271	0	0	0	0	-0.00056516	0	0.000507082	0	0	0
0.25	-122.359	1541.75	16.7044	1.06642	0	-0.300277	0	-3.27174	0	0	0	0	-0.00056516	0	0.000507082	0	0	0
0.258333	-95.3042	1626.78	12.377	1.04461	0	-0.300309	0	-2.2866	0	0	0	0	-0.000565161	0	0.000507082	0	0	0
0.266667	-61.68	1684.26	5.33935	1.02281	0	-0.300131	0	-0.777869	0	0	0	0	-0.000565161	0	0.000507082	0	0	0
0.275	-22.4774	1712.38	-0.246041	1.00051	0	-0.300097	-0	0.803806	-0	0	0	0	-0.000565162	0	0.000507081	0	0	0
0.283333	17.5604	1711.96	-1.86792	0.97843	0	-0.300181	-0	2.02747	-0	0	0	0	-0.000565163	0	0.000507081	0	0	0
0.291667	56.8402	1684.87	0.0712639	0.956784	0	-0.300278	-0	2.60111	-0	0	0	0	-0.000565163	0	0.000507081	0	0	0
0.3	96.25	1631.37	3.32246	0.935131	0	-0.300461	-0	2.42407	-0	0	0	0	-0.000565164	0	0.00050708	0	0	0
0.308333	135.15	1550.73	6.26128	0.913205	0	-0.300835	-0	1.57412	-0	0	0	0	-0.000565165	0	0.00050708	0	0	0
0.316667	170.119	1444.03	9.02115	0.891286	0	-0.301354	-0	0.257098	-0	0	0	0	-0.000565165	0	0.00050708	0	0	0
0.325	196.802	1314.18	12.3117	0.869932	0	-0.301908	0	-1.25307	0	0	0	0	-0.000565166	0	0.000507079	0	0	0
0.333333	213.604	1164.67	15.8696	0.849209	0	-0.3024	0	-2.67171	0	0	0	0	-0.000565167	0	0.000507079	0	0	0
0.341667	219.499	1000.11	18.4595	0.829054	0	-0.302803	0	-3.75631	0	0	0	0	-0.000565168	0	0.000507078	0	0	0
0.35	213.348	827.685	19.027	0.809591	0	-0.303047	0	-4.34986	0	0	0	0	-0.000565169	0	0.000507078	0	0	0
0.358333	195.109	656.519	17.4798	0.791123	0	-0.302967	0	-4.40494	0	0	0	0	-0.00056517	0	0.000507077	0	0	0
0.366667	167.333	497.929	14.5558	0.773701	0	-0.302349	0	-3.98115	0	0	0	0	-0.000565171	0	0.000507077	0	0	0
0.375	134.865	362.306	11.2786	0.757356	0	-0.300923	0	-3.2183	0	0	0	0	-0.000565172	0	0.000507076	0	0	0
0.383333	102.613	252.469	8.42834	0.743916	0	-0.298498	0	-2.29559	0	0	0	0	-0.000565173	0	0.000507076	0	0	0
0.391667	74.3032	165.803	6.19773	0.736442	0	-0.294562	0	-1.39041	0	0	0	0	-0.000565174	0	0.000507075	0	0	0
0.4	51.2242	100.243	4.31707	0.737463	0	-0.288277	0	-0.646762	0	0	0	0	-0.000565175	0	0.000507075	0	0	0
0.408333	32.6996	54.7903	2.59426	0.747513	0	-0.279472	0	-0.15667	0	0	0	0	-0.000565176	0	0.000507074	0	0	0
0.416667	18.1493	27.1213	1.19661	0.771905	0	-0.269503	-0	0.047808	-0	0	0	0	-0.000565177	0	0.000507073	0	0	0
0.425	7.977	12.901	0.370172	0.860969	0	-0.254211	0	-0.005384	0	0	0	0	-0.000565178	0	0.000507073	0	0	0
0.433333	0	0	0	-0.000565182	0	0.000507078	0	0	0	0	0	0	-0.00056518	0	0.000507072	0	0	0
0.441667	0	0	0	-0.000565183	0	0.000507077	0	0	0	0	0	0	-0.000565181	0	0.000507071	0	0	0
0.45	0	0	0	-0.000565184	0	0.000507077	0	0	0	0	0	0	-0.000565182	0	0.000507071	0	0	0
0.458333	0	0	0	-0.000565186	0	0.000507077	0	0	0	0	0	0	-0.000565184	0	0.00050707	0	0	0
0.466667	0	0	0	-0.000565187	0	0.000507076	0	0	0	0	0	0	-0.000565185	0	0.000507069	0	0	0
0.475	0	0	0	-0.000565189	0	0.000507076	0	0	0	0	0	0	-0.000565187	0	0.000507068	0	0	0
0.483333	0	0	0	-0.000565191	0	0.000507075	0	0	0	0	0	0	-0.000565188	0	0.000507068	0	0	0
0.491667	0	0	0	-0.000565192	0	0.000507075	0	0	0	0	0	0	-0.000565189	0	0.000507067	0	0	0
0.5	0	0	0	-0.000565194	0	0.000507075	0	0	0	0	0	0	-0.000565191	0	0.000507066	0	0	0
0.508333	0	0	0	-0.000565196	0	0.000507074	0	0	0	0	0	0	-0.000565193	0	0.000507065	0	0	0
0.516667	0	0	0	-0.000565197	0	0.000507074	0	0	0	-3.12478	12.7444	-1.23895	1.16622	0	-0.296225	-0	1.18789	-0
0.525	0	0	0	-0.000565199	0	0.000507073	0	0	0	-14.1006	37.421	0.206036	1.23932	0	-0.373077	0	-0.007837	0
0.533333	0	0	0	-0.000565201	0	0.000507073	0	0	0	-40.3556	102.788	5.82881	1.26607	0	-0.389959	0	-1.706	0
0.541667	0	0	0	-0.000565203	0	0.000507072	0	0	0	-82.0915	225.892	18.1509	1.27428	0	-0.388083	0	-3.53451	0
0.55	0	0	0	-0.000565205	0	0.000507072	0	0	0	-118.581	394.342	35.5866	1.27066	0	-0.381645	0	-4.96594	0
0.558333	0	0	0	-0.000565207	0	0.000507071	0	0	0	-126.066	583.914	50.1679	1.25105	0	-0.375836	0	-5.47871	0
0.566667	0	0	0	-0.000565209	0	0.000507071	0	0	0	-115.699	788.372	52.8622	1.22005	0	-0.372363	0	-4.76837	0
0.575	0	0	0	-0.000565211	0	0.00050707	0	0	0	-120.738	999.535	42.4959	1.19331	0	-0.369796	0	-2.90562	0
0.583333	0	0	0	-0.000565213	0	0.00050707	0	0	0	-150.445	1197.47	26.3805	1.17624	0	-0.366142	0	-0.343258	0
0.591667	0	0	0	-0.000565215	0	0.000507069	0	0	0	-181.737	1365.69	12.072	1.16086	0	-0.362037	-0	2.24005	-0
0.6	0	0	0	-0.000565217	0	0.000507069	0	0	0	-188.778	1498.14	2.55156	1.14053	0	-0.359373	-0	4.17819	-0
0.608333	0	0	0	-0.000565219	0	0.000507068	0	0	0	-171.327	1597.4	-0.734122	1.11719	0	-0.358685	-0	5.03535	-0
0.616667	0	0	0	-0.000565221	0	0.000507068	0	0	0	-147.163	1668.64	4.22919	1.09548	0	-0.358886	-0	4.73496	-0
0.625	0	0	0	-0.000565223	0	0.000507067	0	0	0	-123.221	1714.91	16.2072	1.07559	0	-0.358659	-0	3.56587	-0
0.633333	0	0	0	-0.000565225	0	0.000507067	0	0	0	-93.1009	1734.31	28.2086	1.05506	0	-0.357982	-0	2.06101	-0
0.641667	0	0	0	-0.000565228	0	0.000507066	0	0	0	-54.1816	1723.33	32.8198	1.03317	0	-0.357672	-0	0.793358	-0
0.65	0	0	0	-0.00056523	0	0.000507066	0	0	0	-12.5423	1682.22	29.4027	1.01138	0	-0.357808	-0	0.182606	-0
0.658333	0	0	0	-0.000565232	0	0.000507065	0	0	0	24.7705	1614.93	23.2489	0.990687	0	-0.357385	-0	0.396205	-0
0.666667	0	0	0	-0.000565235	0	0.000507064	0	0	0	58.1991	1525.02	18.0264	0.970362	0	-0.355711	-0	1.35676	-0
0.675	0	0	0	-0.000565237	0	0.000507064	0	0	0	91.6753	1412.71	12.0907	0.949601	0	-0.35344	-0	2.80624	-0
0.683333	0	0	0	-0.000565239	0	0.000507063	0	0	0	124.239	1277.72	2.96123	0.928465	0	-0.351629	-0	4.38147	-0
0.691667	0	0	0	-0.000565242	0	0.000507063	0	0	0	148.812	1124.58	-7.50808	0.907607	0	-0.350327	-0	5.69573	-0
0.7	0	0	0	-0.000565244	0	0.000507062	0	0	0	160.417	963.247	-14.6956	0.887658	0	-0.348606	-0	6.43197	-0
0.708333	0	0	0	-0.000565247	0	0.000507061	0	0	0	161.055	802.518	-16.6181	0.86829	0	-0.345838	-0	6.42492	-0
0.716667	0	0	0	-0.000565249	0	0.000507061	0	0	0	153.214	646.4	-15.5663	0.848893	0	-0.342709	-0	5.69281	-0
0.725	0	0	0	-0.000565252	0	0.00050706	0	0	0	136.501	499.034	-14.559	0.830179	0	-0.340607	-0	4.4065	-0
0.733333	0	0	0	-0.000565254	0	0.000507059	0	0	0	112.557	367.506	-13.9845	0.813723	0	-0.339939	-0	2.8231	-0
0.741667	0	0	0	-0.000565257	0	0.000507059	0	0	0	87.0293	258.172	-12.3946	0.799505	0	-0.339067	-0	1.2209	-0
0.75	0	0	0	-0.00056526	0	0.000507058	0	0	0	65.1512	172.743	-9.44507	0.786448	0	-0.334987	0	-0.150205	0
0.758333	0	0	0	-0.000565262	0	0.000507057	0	0	0	47.1788	108.286	-6.73084	0.778758	0	-0.326252	0	-1.10815	0
0.766667	0	0	0	-0.000565265	0	0.000507057	0	0	0	31.7187	61.4364	-5.65933	0.786492	0	-0.314189	0	-1.56936	0
0.775	0	0	0	-0.000565268	0	0.000507056	0	0	0	19.1346	30.8477	-5.50478	0.820805	0	-0.298338	0	-1.55957	0
0.783333	0	0	0	-0.00056527	0	0.000507055	0	0	0	10.4247	14.9321	-4.36442	0.885658	0	-0.261384	0	-1.19633	0
0.791667	0	0	0	-0.000565273	0	0.000507055	0	0	0	0	0	0	-0.000565264	0	0.000507027	0	0	0
